<svg xmlns="http://www.w3.org/2000/svg" xmlns:xlink="http://www.w3.org/1999/xlink" width="2225.535" height="322.051" viewBox="0 0 2225.535 322.051">
  <defs>
    <clipPath id="clip-path">
      <rect id="Rectangle_20" data-name="Rectangle 20" width="15" height="34.504" transform="translate(0 0)" fill="#fff"/>
    </clipPath>
  </defs>
  <g id="Group_842" data-name="Group 842" transform="translate(288.311 -803.457)">
    <path id="Path_680" data-name="Path 680" d="M2934.951,1122.159s-59.982-121.365,91.156-200.944,760.656,238.014,865.5,176.7,289.437-215.6,469.206-241.2,268.543,64.686,459.967,151.234,255.815,64.834,321.985,22.123" transform="translate(-3209)" fill="none" stroke="#fff" stroke-linecap="round" stroke-width="5" stroke-dasharray="12.147 12.147"/>
    <g id="Group_804" data-name="Group 804" transform="translate(615.007 -167.469) rotate(17)">
      <g id="Group_23" data-name="Group 23" transform="translate(763.648 830.339) rotate(-120)">
        <g id="Group_22" data-name="Group 22" transform="translate(0 0)" clip-path="url(#clip-path)">
          <path id="Path_170" data-name="Path 170" d="M3.955,23.26A16.668,16.668,0,0,1,.563,14.774C-.018,8.3,3.514.665,7.446.5c3.138-.129,5.859,4.527,6.882,7.388C16.9,15.1,12.6,21.81,11.9,22.871l-7.943.389" transform="translate(-0.321 -0.321)" fill="#fff"/>
          <path id="Path_171" data-name="Path 171" d="M3.955,23.26A16.668,16.668,0,0,1,.563,14.774C-.018,8.3,3.514.665,7.446.5c3.138-.129,5.859,4.527,6.882,7.388C16.9,15.1,12.6,21.81,11.9,22.871Z" transform="translate(-0.321 -0.321)" fill="#fff"/>
          <path id="Path_172" data-name="Path 172" d="M9.006,69.322l7.692-.2a7.433,7.433,0,0,1,1.113,3.34c.054.7.323,4.225-2.226,5.668A5.146,5.146,0,0,1,9.41,76.811,6.05,6.05,0,0,1,8.3,72.864a8.645,8.645,0,0,1,.709-3.542" transform="translate(-5.322 -44.343)" fill="#fff"/>
          <path id="Path_173" data-name="Path 173" d="M9.006,69.322l7.692-.2a7.433,7.433,0,0,1,1.113,3.34c.054.7.323,4.225-2.226,5.668A5.146,5.146,0,0,1,9.41,76.811,6.05,6.05,0,0,1,8.3,72.864,8.645,8.645,0,0,1,9.006,69.322Z" transform="translate(-5.322 -44.343)" fill="#fff"/>
        </g>
      </g>
      <g id="Group_56" data-name="Group 56" transform="translate(763.648 805.218) rotate(-120)">
        <g id="Group_22-2" data-name="Group 22" transform="translate(0 0)" clip-path="url(#clip-path)">
          <path id="Path_170-2" data-name="Path 170" d="M3.955,23.26A16.668,16.668,0,0,1,.563,14.774C-.018,8.3,3.514.665,7.446.5c3.138-.129,5.859,4.527,6.882,7.388C16.9,15.1,12.6,21.81,11.9,22.871l-7.943.389" transform="translate(-0.321 -0.321)" fill="#fff"/>
          <path id="Path_171-2" data-name="Path 171" d="M3.955,23.26A16.668,16.668,0,0,1,.563,14.774C-.018,8.3,3.514.665,7.446.5c3.138-.129,5.859,4.527,6.882,7.388C16.9,15.1,12.6,21.81,11.9,22.871Z" transform="translate(-0.321 -0.321)" fill="#fff"/>
          <path id="Path_172-2" data-name="Path 172" d="M9.006,69.322l7.692-.2a7.433,7.433,0,0,1,1.113,3.34c.054.7.323,4.225-2.226,5.668A5.146,5.146,0,0,1,9.41,76.811,6.05,6.05,0,0,1,8.3,72.864a8.645,8.645,0,0,1,.709-3.542" transform="translate(-5.322 -44.343)" fill="#fff"/>
          <path id="Path_173-2" data-name="Path 173" d="M9.006,69.322l7.692-.2a7.433,7.433,0,0,1,1.113,3.34c.054.7.323,4.225-2.226,5.668A5.146,5.146,0,0,1,9.41,76.811,6.05,6.05,0,0,1,8.3,72.864,8.645,8.645,0,0,1,9.006,69.322Z" transform="translate(-5.322 -44.343)" fill="#fff"/>
        </g>
      </g>
    </g>
  </g>
</svg>
