<svg id="Component_34_1" data-name="Component 34 – 1" xmlns="http://www.w3.org/2000/svg" width="55" height="55.053" viewBox="0 0 55 55.053">
  <circle id="Ellipse_4" data-name="Ellipse 4" cx="27.5" cy="27.5" r="27.5" transform="translate(0)" fill="#fff"/>
  <path id="Icon_awesome-youtube" data-name="Icon awesome-youtube" d="M22.59,6.855a2.728,2.728,0,0,0-1.945-1.9c-1.716-.45-8.6-.45-8.6-.45s-6.88,0-8.6.45a2.728,2.728,0,0,0-1.945,1.9,27.477,27.477,0,0,0-.46,5.186,27.477,27.477,0,0,0,.46,5.186A2.688,2.688,0,0,0,3.455,19.1c1.716.45,8.6.45,8.6.45s6.88,0,8.6-.45a2.688,2.688,0,0,0,1.945-1.875,27.477,27.477,0,0,0,.46-5.186,27.477,27.477,0,0,0-.46-5.186ZM9.8,15.225V8.858l5.75,3.183L9.8,15.225Z" transform="translate(15.95 15.5)" fill="#483729"/>
</svg>
