<svg xmlns="http://www.w3.org/2000/svg" width="25.113" height="25.043" viewBox="0 0 25.113 25.043">
  <path id="Path_769" data-name="Path 769" d="M35.937,9.022a27.13,27.13,0,0,0-7.581-2.785.51.51,0,0,0-.549.449C27.8,8.234,32.453,13.7,32.67,14.381c.289.9-2.286,4.134-2.936,5.019-.784,1.067-2.064,2.384-1.822,3.82a.845.845,0,0,0,.947.681,34.275,34.275,0,0,0,4.695-1.949,26.539,26.539,0,0,0,5.128-2.96,67.575,67.575,0,0,0,7.424,5.94.65.65,0,0,0,1.018-.41,8.784,8.784,0,0,0-.574-3.79c-.253-.7-.558-1.39-.863-2.072-.27-.6-.946-1.6-.867-2.279.124-1.064,3.172-1.868,4.074-2.347a11.313,11.313,0,0,0,3.913-2.81.681.681,0,0,0-.3-.981c-2.428-1.235-5.822-.1-8.418-.057-1.057.018-1.182-.487-1.286-1.458a23.3,23.3,0,0,1-.035-2.7A40.122,40.122,0,0,0,42.054.456C42,.089,41.1-.162,40.916.124a60.916,60.916,0,0,0-3.062,5.308,17.643,17.643,0,0,1-1.917,3.59m.759,1.7c1.1-.931,1.471-2.641,2.049-3.912.693-1.526,1.442-3.035,2.214-4.527a39.117,39.117,0,0,1,.377,4.632c.042,1.3.049,3.11,1.056,4.109,1.032,1.023,2.755.323,4.015.247a23.016,23.016,0,0,1,4.777-.225c-2.023,2.185-5.487,2.337-7.837,4.093a.553.553,0,0,0-.249.569c.482,2.424,2.268,4.824,2.512,7.279-2.306-1.611-4.464-3.9-6.629-5.693a.746.746,0,0,0-.816-.143c-1.709.921-8.229,4.833-8.624,5.028.571-1.069,3.887-4.978,4.642-5.945a1.986,1.986,0,0,0,.542-1.565c-.181-1.321-1.735-2.392-2.581-3.288a23.721,23.721,0,0,1-2.95-3.772c1.081.241,7.143,3.417,7.5,3.113" transform="translate(-27.807)" fill="#db7623"/>
</svg>
