<svg xmlns="http://www.w3.org/2000/svg" width="127.878" height="126.623" viewBox="0 0 127.878 126.623">
  <path id="Path_518" data-name="Path 518" d="M1.434,63.857s41.824-26.9,58.189-46.5S72.571.086,72.571.086V3.229l1.768-1.174V4.913h3.484l-2.5,1.963,5.089-.889V8.644h3.467l3.378,4.026,3.925-.944-.815,2.331,1.982.722,2.842-.7.225,4.351S32.973,74.727,20.9,82c-4.01,2.415-5.93,4.038-6.58,2.816L9.333,82.051l2.574-2.179-2.574-1v-.823L8.514,76.8,6.092,75.81,7.15,74.331l-3.18-.937,2.123-2.924H1.434L3.97,68.688,0,67.752,1.434,65.93Z" transform="translate(54.786) rotate(40)" fill="#b7dfd9"/>
</svg>
